<?xml version="1.0" encoding="UTF-8" standalone="no"?>
<!-- Created with Inkscape (http://www.inkscape.org/) -->

<svg
   xmlns:dc="http://purl.org/dc/elements/1.1/"
   xmlns:cc="http://creativecommons.org/ns#"
   xmlns:rdf="http://www.w3.org/1999/02/22-rdf-syntax-ns#"
   xmlns:svg="http://www.w3.org/2000/svg"
   xmlns="http://www.w3.org/2000/svg"
   version="1.2"
   width="632.41522"
   height="322.83679"
   id="svg2">
  <defs
     id="defs4">
    <clipPath
       id="clipPath2490">
      <path
         d="m 212.094,388.135 14.049,5.103 2.124,-12.132 c 0,0 9.729,5.184 4.356,15.975 -2.754,5.517 -13.86,8.091 -19.782,0.036 -2.691,-3.645 -0.747,-8.982 -0.747,-8.982"
         id="path2492" />
    </clipPath>
    <clipPath
       id="clipPath2520">
      <path
         d="m 0,425.16 283.44,0 L 283.44,0 0,0 0,425.16 z"
         id="path2522" />
    </clipPath>
  </defs>
  <metadata
     id="metadata7">
    <rdf:RDF>
      <cc:Work
         rdf:about="">
        <dc:format>image/svg+xml</dc:format>
        <dc:type
           rdf:resource="http://purl.org/dc/dcmitype/StillImage" />
        <dc:title></dc:title>
      </cc:Work>
    </rdf:RDF>
  </metadata>
  <g
     transform="translate(-105.70249,-95.824346)"
     id="layer1">
    <g
       transform="matrix(2.651563,-0.92514962,0.92514962,2.651563,-22.758684,77.332437)"
       id="flowRoot2995"
       style="font-size:40px;font-style:normal;font-weight:normal;line-height:125%;letter-spacing:0px;word-spacing:0px;fill:#004494;fill-opacity:1;stroke:none;font-family:Sans">
      <path
         d="m 21.60125,98.561466 20.28,0 0,8.240004 -9.24,0 0,2.88 8.44,0 0,7.84 -8.44,0 0,2.96 9.56,0 0,8.24 -20.6,0 0,-30.160004"
         id="path3889"
         style="word-spacing:0.00825572px;fill:#004494;font-family:Futura;-inkscape-font-specification:Futura" />
      <path
         d="m 55.883125,110.88147 0.24,0 c 0.506654,-0.58665 0.986654,-1.10665 1.44,-1.56 0.479986,-0.47998 0.973319,-0.89332 1.48,-1.24 0.533318,-0.34665 1.106651,-0.61332 1.72,-0.8 0.639983,-0.18665 1.373315,-0.27998 2.2,-0.28 1.306647,2e-5 2.426645,0.24002 3.36,0.72 0.93331,0.45335 1.69331,1.08002 2.28,1.88 0.613308,0.77335 1.053308,1.68001 1.32,2.72 0.266641,1.04001 0.399974,2.14668 0.4,3.32 l 0,13.08 -10.32,0 0,-10.36 c -1.6e-5,-0.31999 -0.01335,-0.65333 -0.04,-1 -1.6e-5,-0.34666 -0.06668,-0.66666 -0.2,-0.96 -0.106682,-0.29332 -0.280015,-0.53332 -0.52,-0.72 -0.240015,-0.21332 -0.573348,-0.31999 -1,-0.32 -0.42668,1e-5 -0.760013,0.10668 -1,0.32 -0.240013,0.18668 -0.413346,0.42668 -0.52,0.72 -0.106679,0.29334 -0.173346,0.61334 -0.2,0.96 -1.2e-5,0.34667 -1.2e-5,0.68001 0,1 l 0,10.36 -10.32,0 0,-21.24 10.08,0 -0.4,3.4"
         id="path3891"
         style="word-spacing:0.00825572px;fill:#004494;font-family:Futura;-inkscape-font-specification:Futura" />
      <path
         d="m 86.088125,107.76147 3.44,-0.16 0,8.12 -3.44,-0.2 0,13.2 -10.4,0 0,-13.2 -2.52,0.2 0,-8.12 2.52,0.16 0,-7.12 10.4,0 0,7.12"
         id="path3893"
         style="word-spacing:0.00825572px;fill:#004494;font-family:Futura;-inkscape-font-specification:Futura" />
      <path
         d="m 109.15188,117.48147 c -0.53336,-0.31999 -1.02669,-0.58666 -1.48,-0.8 -0.45336,-0.23999 -1.01336,-0.35999 -1.68001,-0.36 -1.36001,10e-6 -2.37334,0.37334 -3.03999,1.12 -0.66668,0.74667 -1.00002,1.78667 -1,3.12 l 0,8.16 -10.320005,0 0,-21.24 10.320005,0 -0.24001,2.84 0.24001,0 c 0.45332,-0.69332 0.91998,-1.25332 1.4,-1.68 0.47998,-0.45332 0.99998,-0.79998 1.55999,-1.04 0.58666,-0.26665 1.21332,-0.43998 1.88001,-0.52 0.69331,-0.08 1.47998,-0.10665 2.36,-0.08 l 0,10.48"
         id="path3895"
         style="word-spacing:0.00825572px;fill:#004494;font-family:Futura;-inkscape-font-specification:Futura" />
      <path
         d="m 123.7175,107.00147 c 1.75998,2e-5 3.41332,0.24002 4.96,0.72 1.57331,0.48002 2.94664,1.20002 4.12,2.16 1.17331,0.96001 2.09331,2.14668 2.76,3.56 0.69331,1.41334 1.03997,3.05334 1.04,4.92 -3e-5,1.76 -0.36003,3.32 -1.08,4.68 -0.72003,1.33333 -1.68002,2.46667 -2.88,3.4 -1.20002,0.90666 -2.57335,1.6 -4.12,2.08 -1.54668,0.45333 -3.14668,0.68 -4.8,0.68 -1.65335,0 -3.25334,-0.22667 -4.8,-0.68 -1.54667,-0.48 -2.92001,-1.17334 -4.12,-2.08 -1.2,-0.93333 -2.16,-2.06667 -2.88,-3.4 -0.72,-1.36 -1.08,-2.92 -1.08,-4.68 0,-1.86666 0.33333,-3.50666 1,-4.92 0.69333,-1.41332 1.62666,-2.59999 2.8,-3.56 1.17333,-0.95998 2.53333,-1.67998 4.08,-2.16 1.57332,-0.47998 3.23999,-0.71998 5,-0.72"
         id="path3897"
         style="word-spacing:0.00825572px;fill:#004494;font-family:Futura;-inkscape-font-specification:Futura" />
      <path
         d="m 149.59125,110.84147 0.32,0 c 0.58665,-1.22665 1.49332,-2.17332 2.72,-2.84 1.25332,-0.66665 2.55998,-0.99998 3.92,-1 1.49331,2e-5 2.78665,0.32002 3.88,0.96 1.11998,0.64002 2.03998,1.48002 2.76,2.52 0.74664,1.01335 1.29331,2.17335 1.64,3.48 0.37331,1.30668 0.55997,2.62667 0.56,3.96 -3e-5,1.25334 -0.20003,2.54667 -0.6,3.88 -0.37336,1.33334 -0.93336,2.54667 -1.68,3.64 -0.74669,1.09333 -1.68002,2 -2.8,2.72 -1.12002,0.69333 -2.40002,1.04 -3.84,1.04 -0.58668,0 -1.18668,-0.08 -1.8,-0.24 -0.61335,-0.16 -1.21335,-0.38667 -1.8,-0.68 -0.56001,-0.29334 -1.08001,-0.64 -1.56,-1.04 -0.45335,-0.42667 -0.82668,-0.90667 -1.12,-1.44 l -0.28,0 0.48,3.4 0,8.28 -10.32,0 0,-30 9.84,0 -0.32,3.36"
         id="path3899"
         style="word-spacing:0.00825572px;fill:#004494;font-family:Futura;-inkscape-font-specification:Futura" />
      <path
         d="m 169.38312,107.48147 10.32,0 0,21.24 -10.32,0 0,-21.24"
         id="path3901"
         style="word-spacing:0.00825572px;fill:#004494;font-family:Futura;-inkscape-font-specification:Futura" />
    </g>
    <g
       transform="matrix(5.1601935,0,0,5.1601935,-133.49019,-123.11587)"
       id="g3081">
      <g
         transform="matrix(1.25,0,0,-1.25,-112.49563,540.34)"
         id="g2516">
        <g
           clip-path="url(#clipPath2520)"
           id="g2518" />
      </g>
      <path
         d="m 159.21227,46.304507 -5.49075,1.99528 3.89303,10.69647 5.49076,-2.00278 -3.89304,-10.68897 z m -21.1679,7.56854 c -0.4608,0.0185 -0.94123,0.11169 -1.4177,0.28504 -1.90586,0.694 -3.02892,2.41773 -2.50534,3.85553 0.52327,1.4381 2.49754,2.04388 4.4031,1.35019 1.90616,-0.6937 3.02112,-2.42524 2.49784,-3.86303 -0.39245,-1.07858 -1.59551,-1.68322 -2.9779,-1.62773 z m 16.29223,0.29254 -4.85317,1.77025 0.32255,0.87012 -0.30754,-0.18003 c -1.21217,-0.62618 -2.32442,-0.22863 -2.9104,-0.015 -2.82849,1.02914 -3.91194,4.10156 -2.71537,7.38852 1.15455,3.17263 3.77962,5.21531 6.85594,4.09556 1.18576,-0.43116 1.87135,-1.14616 2.2053,-2.04028 l 0.11252,-0.33005 0.35254,0.96013 4.85317,-1.76274 -3.91554,-10.75647 z m 7.59105,4.00555 c -0.46078,0.0185 -0.94131,0.10412 -1.4177,0.27754 -1.90616,0.6934 -3.02861,2.42523 -2.50534,3.86303 0.52327,1.4381 2.48974,2.04388 4.3956,1.35019 1.90556,-0.6934 3.02892,-2.42493 2.50535,-3.86303 -0.39224,-1.07835 -1.59558,-1.68328 -2.97791,-1.62773 z m -20.53782,0.7051 -5.58077,2.03278 c 0,0 4.10967,11.30705 4.45561,12.25668 0.16442,0.45306 0.16953,1.22837 -0.7351,1.4252 l 1.96527,5.40074 c 5.30263,-1.79755 5.32393,-6.62521 4.53813,-8.34115 l -4.64314,-12.77425 z m 8.13111,0.47257 c 0.74318,-0.009 1.60421,0.81206 2.04028,2.01027 0.49867,1.36939 0.25114,2.71717 -0.54757,3.00792 -0.79901,0.29074 -1.84976,-0.58809 -2.34783,-1.95777 -0.49836,-1.36939 -0.25893,-2.70968 0.54008,-3.00042 0.0998,-0.0363 0.20887,-0.0588 0.31504,-0.06 z"
         id="path2524"
         style="fill:#004494;fill-opacity:1;fill-rule:nonzero;stroke:none" />
      <path
         d="m 130.03148,56.732939 c -0.4608,0.0185 -0.94123,0.11169 -1.4177,0.28504 -1.90586,0.694 -3.02892,2.41773 -2.50534,3.85553 0.52327,1.4381 2.49754,2.04388 4.4031,1.35019 1.90616,-0.6937 3.02112,-2.42524 2.49784,-3.86303 -0.39245,-1.07858 -1.59551,-1.68322 -2.9779,-1.62773 z"
         id="path3903"
         style="fill:#004494;fill-opacity:1;fill-rule:nonzero;stroke:none" />
    </g>
    <path
       d="m 411.23321,263.20011 c 3.83495,-0.0464 8.27803,4.19038 10.52824,10.37338 2.57323,7.06632 1.29593,14.02112 -2.82557,15.52145 -4.12304,1.50027 -9.54512,-3.03466 -12.11526,-10.10248 -2.57163,-7.06631 -1.33612,-13.98247 2.78692,-15.48274 0.51499,-0.18732 1.07781,-0.30342 1.62567,-0.30961 z"
       id="path2524-0-1"
       style="fill:#ffffff;fill-opacity:1;fill-rule:nonzero;stroke:none" />
    <path
       d="m 489.09035,236.77154 c 3.83495,-0.0464 8.27803,4.19038 10.52824,10.37338 2.57323,7.06632 1.29593,14.02112 -2.82557,15.52145 -4.12304,1.50027 -9.54512,-3.03466 -12.11526,-10.10248 -2.57163,-7.06631 -1.33612,-13.98247 2.78692,-15.48274 0.51499,-0.18732 1.07781,-0.30342 1.62567,-0.30961 z"
       id="path2524-0-1-2"
       style="fill:#ffffff;fill-opacity:1;fill-rule:nonzero;stroke:none" />
  </g>
</svg>
